<svg width="20" height="20" viewBox="0 0 20 20" fill="none" xmlns="http://www.w3.org/2000/svg">
<path fill-rule="evenodd" clip-rule="evenodd" d="M4.80958 6.11111C4.40316 6.11111 4.14754 6.3979 4.14754 6.66667V13.3333C4.14754 13.6021 4.40316 13.8889 4.80958 13.8889H15.1904C15.5968 13.8889 15.8525 13.6021 15.8525 13.3333V6.66667C15.8525 6.3979 15.5968 6.11111 15.1904 6.11111H4.80958ZM3 6.66667C3 5.70814 3.85096 5 4.80958 5H15.1904C16.149 5 17 5.70814 17 6.66667V13.3333C17 14.2919 16.149 15 15.1904 15H4.80958C3.85096 15 3 14.2919 3 13.3333V6.66667Z" fill="black"/>
<path fill-rule="evenodd" clip-rule="evenodd" d="M5.86869 7.88888C6.05882 7.64342 6.41846 7.59367 6.67197 7.77777L9.99984 10.1944L13.3277 7.77777C13.5812 7.59367 13.9409 7.64342 14.131 7.88888C14.3211 8.13434 14.2697 8.48256 14.0162 8.66666L10.3441 11.3333C10.1401 11.4815 9.85959 11.4815 9.65558 11.3333L5.98345 8.66666C5.72994 8.48256 5.67856 8.13434 5.86869 7.88888Z" fill="black"/>
</svg>
