<svg width="20" height="20" viewBox="0 0 20 20" fill="none" xmlns="http://www.w3.org/2000/svg">
<path d="M11.7142 6.85712H15.7142V7.99997H11.7142V6.85712ZM11.7142 9.71426H15.7142V10.8571H11.7142V9.71426ZM11.7142 12.5714H15.7142V13.7143H11.7142V12.5714ZM4.28564 6.85712H8.28564V7.99997H4.28564V6.85712ZM4.28564 9.71426H8.28564V10.8571H4.28564V9.71426ZM4.28564 12.5714H8.28564V13.7143H4.28564V12.5714Z" fill="black"/>
<path d="M16.8571 4H3.14286C2.83975 4 2.54906 4.12041 2.33474 4.33474C2.12041 4.54906 2 4.83975 2 5.14286V15.4286C2 15.7317 2.12041 16.0224 2.33474 16.2367C2.54906 16.451 2.83975 16.5714 3.14286 16.5714H16.8571C17.1602 16.5714 17.4509 16.451 17.6653 16.2367C17.8796 16.0224 18 15.7317 18 15.4286V5.14286C18 4.83975 17.8796 4.54906 17.6653 4.33474C17.4509 4.12041 17.1602 4 16.8571 4ZM3.14286 5.14286H9.42857V15.4286H3.14286V5.14286ZM10.5714 15.4286V5.14286H16.8571V15.4286H10.5714Z" fill="black"/>
</svg>
