<svg width="20" height="20" viewBox="0 0 20 20" fill="none" xmlns="http://www.w3.org/2000/svg">
<path d="M15.8333 3.14286V16.8571H4.16667V3.14286H15.8333ZM15.8333 2H4.16667C3.85725 2 3.5605 2.12041 3.34171 2.33474C3.12292 2.54906 3 2.83975 3 3.14286V16.8571C3 17.1602 3.12292 17.4509 3.34171 17.6653C3.5605 17.8796 3.85725 18 4.16667 18H15.8333C16.1428 18 16.4395 17.8796 16.6583 17.6653C16.8771 17.4509 17 17.1602 17 16.8571V3.14286C17 2.83975 16.8771 2.54906 16.6583 2.33474C16.4395 2.12041 16.1428 2 15.8333 2Z" fill="black"/>
<path d="M6 13.8889H7.14286V15H6V13.8889ZM12.8571 13.8889H14V15H12.8571V13.8889ZM6 11.1111H7.14286V12.2222H6V11.1111ZM12.8571 11.1111H14V12.2222H12.8571V11.1111ZM6 8.33333H7.14286V9.44444H6V8.33333ZM9.42857 13.8889H10.5714V15H9.42857V13.8889ZM9.42857 11.1111H10.5714V12.2222H9.42857V11.1111ZM9.42857 8.33333H10.5714V9.44444H9.42857V8.33333ZM12.8571 8.33333H14V9.44444H12.8571V8.33333ZM6 5H14V6.66667H6V5Z" fill="black"/>
</svg>
