<svg width="20" height="20" viewBox="0 0 20 20" fill="none" xmlns="http://www.w3.org/2000/svg">
<path d="M17 3.49684L12.9965 3.49685V2.50012C12.9965 2.2238 12.7727 2 12.4965 2C12.2203 2 11.9965 2.2238 11.9965 2.50012V3.4966H7.9965V2.50012C7.9965 2.2238 7.77275 2 7.4965 2C7.22025 2 6.9965 2.2238 6.9965 2.50012V3.4966H3C2.44775 3.4966 2 3.94446 2 4.49683V16.9998C2 17.5521 2.44775 18 3 18H17C17.5522 18 18 17.5521 18 16.9998V4.49683C18 3.94469 17.5522 3.49684 17 3.49684ZM17 16.9998H3V4.49683H6.9965V5.0007C6.9965 5.277 7.22025 5.50082 7.4965 5.50082C7.77275 5.50082 7.9965 5.277 7.9965 5.0007V4.49709H11.9965V5.00095C11.9965 5.27727 12.2203 5.50107 12.4965 5.50107C12.7727 5.50107 12.9965 5.27727 12.9965 5.00095V4.49709H17V16.9998ZM13.5 9.99836H14.5C14.776 9.99836 15 9.77431 15 9.49824V8.49801C15 8.22194 14.776 7.99789 14.5 7.99789H13.5C13.224 7.99789 13 8.22194 13 8.49801V9.49824C13 9.77431 13.224 9.99836 13.5 9.99836ZM13.5 13.999H14.5C14.776 13.999 15 13.7752 15 13.4989V12.4987C15 12.2226 14.776 11.9986 14.5 11.9986H13.5C13.224 11.9986 13 12.2226 13 12.4987V13.4989C13 13.7755 13.224 13.999 13.5 13.999ZM10.5 11.9986H9.5C9.224 11.9986 9 12.2226 9 12.4987V13.4989C9 13.7752 9.224 13.999 9.5 13.999H10.5C10.776 13.999 11 13.7752 11 13.4989V12.4987C11 12.2229 10.776 11.9986 10.5 11.9986ZM10.5 7.99789H9.5C9.224 7.99789 9 8.22194 9 8.49801V9.49824C9 9.77431 9.224 9.99836 9.5 9.99836H10.5C10.776 9.99836 11 9.77431 11 9.49824V8.49801C11 8.22169 10.776 7.99789 10.5 7.99789ZM6.5 7.99789H5.5C5.224 7.99789 5 8.22194 5 8.49801V9.49824C5 9.77431 5.224 9.99836 5.5 9.99836H6.5C6.776 9.99836 7 9.77431 7 9.49824V8.49801C7 8.22169 6.776 7.99789 6.5 7.99789ZM6.5 11.9986H5.5C5.224 11.9986 5 12.2226 5 12.4987V13.4989C5 13.7752 5.224 13.999 5.5 13.999H6.5C6.776 13.999 7 13.7752 7 13.4989V12.4987C7 12.2229 6.776 11.9986 6.5 11.9986Z" fill="black"/>
</svg>
