<svg width="20" height="20" viewBox="0 0 20 20" fill="none" xmlns="http://www.w3.org/2000/svg">
<path d="M18.2917 12.3333C18.2917 12.5212 18.217 12.7014 18.0842 12.8342C17.9514 12.967 17.7712 13.0417 17.5833 13.0417H15.4583V14.4583H16.875C17.0629 14.4583 17.243 14.533 17.3759 14.6658C17.5087 14.7986 17.5833 14.9788 17.5833 15.1667C17.5833 15.3545 17.5087 15.5347 17.3759 15.6675C17.243 15.8004 17.0629 15.875 16.875 15.875H15.4583V17.2917C15.4583 17.4795 15.3837 17.6597 15.2509 17.7925C15.118 17.9254 14.9379 18 14.75 18C14.5621 18 14.382 17.9254 14.2491 17.7925C14.1163 17.6597 14.0417 17.4795 14.0417 17.2917V12.3333C14.0417 12.1455 14.1163 11.9653 14.2491 11.8325C14.382 11.6996 14.5621 11.625 14.75 11.625H17.5833C17.7712 11.625 17.9514 11.6996 18.0842 11.8325C18.217 11.9653 18.2917 12.1455 18.2917 12.3333ZM6.60417 14.1042C6.60417 14.7617 6.34297 15.3923 5.87804 15.8572C5.4131 16.3221 4.78252 16.5833 4.125 16.5833H3.41667V17.2917C3.41667 17.4795 3.34204 17.6597 3.2092 17.7925C3.07636 17.9254 2.89619 18 2.70833 18C2.52047 18 2.3403 17.9254 2.20747 17.7925C2.07463 17.6597 2 17.4795 2 17.2917V12.3333C2 12.1455 2.07463 11.9653 2.20747 11.8325C2.3403 11.6996 2.52047 11.625 2.70833 11.625H4.125C4.78252 11.625 5.4131 11.8862 5.87804 12.3511C6.34297 12.8161 6.60417 13.4467 6.60417 14.1042ZM5.1875 14.1042C5.1875 13.8224 5.07556 13.5521 4.8763 13.3529C4.67704 13.1536 4.40679 13.0417 4.125 13.0417H3.41667V15.1667H4.125C4.40679 15.1667 4.67704 15.0547 4.8763 14.8555C5.07556 14.6562 5.1875 14.386 5.1875 14.1042ZM12.9792 14.8125C12.9792 15.6579 12.6433 16.4686 12.0456 17.0664C11.4478 17.6642 10.637 18 9.79167 18H8.375C8.18714 18 8.00697 17.9254 7.87413 17.7925C7.74129 17.6597 7.66667 17.4795 7.66667 17.2917V12.3333C7.66667 12.1455 7.74129 11.9653 7.87413 11.8325C8.00697 11.6996 8.18714 11.625 8.375 11.625H9.79167C10.637 11.625 11.4478 11.9608 12.0456 12.5586C12.6433 13.1564 12.9792 13.9671 12.9792 14.8125ZM11.5625 14.8125C11.5625 14.3428 11.3759 13.8924 11.0438 13.5603C10.7117 13.2282 10.2613 13.0417 9.79167 13.0417H9.08333V16.5833H9.79167C10.2613 16.5833 10.7117 16.3968 11.0438 16.0647C11.3759 15.7326 11.5625 15.2822 11.5625 14.8125ZM2 9.79167V3.41667C2 3.04094 2.14926 2.68061 2.41493 2.41493C2.68061 2.14926 3.04094 2 3.41667 2H11.9167C12.0097 1.99993 12.1019 2.01819 12.1879 2.05374C12.2738 2.08929 12.352 2.14143 12.4178 2.20719L17.3761 7.16552C17.4419 7.23135 17.494 7.30949 17.5296 7.39548C17.5651 7.48147 17.5834 7.57362 17.5833 7.66667V9.79167C17.5833 9.97953 17.5087 10.1597 17.3759 10.2925C17.243 10.4254 17.0629 10.5 16.875 10.5C16.6871 10.5 16.507 10.4254 16.3741 10.2925C16.2413 10.1597 16.1667 9.97953 16.1667 9.79167V8.375H11.9167C11.7288 8.375 11.5486 8.30037 11.4158 8.16753C11.283 8.0347 11.2083 7.85453 11.2083 7.66667V3.41667H3.41667V9.79167C3.41667 9.97953 3.34204 10.1597 3.2092 10.2925C3.07636 10.4254 2.89619 10.5 2.70833 10.5C2.52047 10.5 2.3403 10.4254 2.20747 10.2925C2.07463 10.1597 2 9.97953 2 9.79167ZM12.625 6.95833H15.1653L12.625 4.41807V6.95833Z" fill="black"/>
</svg>
