<svg width="20" height="20" viewBox="0 0 20 20" fill="none" xmlns="http://www.w3.org/2000/svg">
<path d="M9.28107 6.96794C9.12477 7.07752 8.99946 7.22708 8.91772 7.40163C8.84837 7.53147 8.73232 7.62879 8.594 7.6731C8.45568 7.7174 8.3059 7.70523 8.17621 7.63915C8.04651 7.57307 7.94703 7.45824 7.89872 7.31884C7.8504 7.17944 7.85703 7.02636 7.91719 6.89185C8.06642 6.58598 8.29995 6.26337 8.66106 6.01837C9.02516 5.76957 9.4855 5.625 10.0496 5.625C10.5405 5.625 11.071 5.77337 11.4925 6.09598C11.7275 6.27118 11.9181 6.50108 12.0484 6.76657C12.1787 7.03205 12.245 7.32543 12.2416 7.62228C12.2416 8.40826 11.8589 8.93098 11.4754 9.30761C11.3336 9.44685 11.1777 9.58 11.0434 9.69413L10.9337 9.78772C10.8181 9.88306 10.7096 9.98708 10.6091 10.0989V11.1413C10.6091 11.2927 10.5502 11.4378 10.4452 11.5448C10.3403 11.6518 10.198 11.712 10.0496 11.712C9.90115 11.712 9.75882 11.6518 9.65388 11.5448C9.54894 11.4378 9.48998 11.2927 9.48998 11.1413V10.0205C9.48998 9.84022 9.53997 9.63707 9.67427 9.46054C9.83841 9.2475 10.0369 9.06717 10.21 8.91728L10.3465 8.80087L10.3473 8.80011C10.4756 8.6913 10.589 8.59467 10.6979 8.48663C10.9725 8.21652 11.1225 7.97228 11.1225 7.62228C11.126 7.5026 11.1002 7.38391 11.0476 7.27686C10.995 7.16982 10.9172 7.07779 10.821 7.00902C10.6211 6.85609 10.3361 6.7663 10.0496 6.7663C9.68098 6.7663 9.44223 6.85837 9.28107 6.96794ZM10.7957 13.6141C10.7957 13.8159 10.7171 14.0095 10.5771 14.1521C10.4372 14.2948 10.2474 14.375 10.0496 14.375C9.85168 14.375 9.66191 14.2948 9.52198 14.1521C9.38206 14.0095 9.30345 13.8159 9.30345 13.6141C9.30345 13.4123 9.38206 13.2188 9.52198 13.0761C9.66191 12.9334 9.85168 12.8533 10.0496 12.8533C10.2474 12.8533 10.4372 12.9334 10.5771 13.0761C10.7171 13.2188 10.7957 13.4123 10.7957 13.6141Z" fill="black"/>
<path d="M10 3C13.8659 3 17 6.13409 17 10C17 13.8659 13.8659 17 10 17C6.13409 17 3 13.8659 3 10C3 6.13409 6.13409 3 10 3ZM3.95455 10C3.95455 11.6034 4.59148 13.141 5.72522 14.2748C6.85896 15.4085 8.39665 16.0455 10 16.0455C11.6034 16.0455 13.141 15.4085 14.2748 14.2748C15.4085 13.141 16.0455 11.6034 16.0455 10C16.0455 8.39665 15.4085 6.85896 14.2748 5.72522C13.141 4.59148 11.6034 3.95455 10 3.95455C8.39665 3.95455 6.85896 4.59148 5.72522 5.72522C4.59148 6.85896 3.95455 8.39665 3.95455 10Z" fill="black"/>
</svg>
