<svg width="20" height="20" viewBox="0 0 20 20" fill="none" xmlns="http://www.w3.org/2000/svg">
<path fill-rule="evenodd" clip-rule="evenodd" d="M6.14103 13.641C4.57622 13.641 3.30769 14.9096 3.30769 16.4743V17.3461C3.30769 17.7072 3.01496 18 2.65385 18C2.29274 18 2 17.7072 2 17.3461V16.4743C2 14.1874 3.854 12.3333 6.14103 12.3333H9.62821C11.9152 12.3333 13.7692 14.1873 13.7692 16.4743V17.3461C13.7692 17.7072 13.4765 18 13.1154 18C12.7543 18 12.4615 17.7072 12.4615 17.3461V16.4743C12.4615 14.9096 11.193 13.641 9.62821 13.641H6.14103Z" fill="black"/>
<path fill-rule="evenodd" clip-rule="evenodd" d="M7.88446 5.79488C6.80114 5.79488 5.92293 6.67309 5.92293 7.75642C5.92293 8.83978 6.80113 9.71796 7.88446 9.71796C8.96783 9.71796 9.846 8.83979 9.846 7.75642C9.846 6.67308 8.96783 5.79488 7.88446 5.79488ZM4.61523 7.75642C4.61523 5.95087 6.07892 4.48718 7.88446 4.48718C9.69006 4.48718 11.1537 5.95088 11.1537 7.75642C11.1537 9.56201 9.69005 11.0257 7.88446 11.0257C6.07893 11.0257 4.61523 9.56201 4.61523 7.75642Z" fill="black"/>
<path fill-rule="evenodd" clip-rule="evenodd" d="M16.3846 1.65385C16.3846 1.29274 16.0918 1 15.7307 1C15.3696 1 15.0769 1.29274 15.0769 1.65385V3.61544H13.1153C12.7542 3.61544 12.4614 3.90817 12.4614 4.26928C12.4614 4.63039 12.7542 4.92313 13.1153 4.92313H15.0769V6.88462C15.0769 7.24573 15.3696 7.53847 15.7307 7.53847C16.0918 7.53847 16.3846 7.24573 16.3846 6.88462V4.92313H18.346C18.7071 4.92313 18.9999 4.63039 18.9999 4.26928C18.9999 3.90817 18.7071 3.61544 18.346 3.61544H16.3846V1.65385Z" fill="black"/>
</svg>
