<svg width="20" height="20" viewBox="0 0 20 20" fill="none" xmlns="http://www.w3.org/2000/svg">
<path fill-rule="evenodd" clip-rule="evenodd" d="M9.98971 4.14807C9.55411 4.14026 9.12124 4.21848 8.71591 4.37824C8.31059 4.53801 7.94078 4.77617 7.62766 5.07909C7.31455 5.38202 7.06429 5.74374 6.89122 6.14354C6.71871 6.54206 6.62627 6.97061 6.61917 7.40478V11.9775C6.61917 12.2608 6.50663 12.5325 6.30632 12.7328C6.10601 12.9331 5.83434 13.0456 5.55107 13.0456H4.56242C4.14805 13.0456 3.75065 12.881 3.45763 12.588C3.16462 12.295 3 11.8976 3 11.4832V9.50601C3 9.09163 3.16462 8.69424 3.45763 8.40124C3.75065 8.10824 4.14805 7.94364 4.56242 7.94364H5.47163V7.39162C5.48049 6.80506 5.60507 6.22602 5.83812 5.68767C6.07116 5.14932 6.40815 4.66224 6.82976 4.25435C7.25138 3.84646 7.74934 3.52576 8.29511 3.31064C8.83769 3.09678 9.41693 2.99144 10 3.00054C10.5831 2.99144 11.1623 3.09678 11.7049 3.31064C12.2507 3.52576 12.7486 3.84646 13.1702 4.25435C13.5919 4.66224 13.9288 5.14932 14.1619 5.68767C14.3949 6.22602 14.5194 6.80506 14.5283 7.39162L14.5284 7.40029L14.5284 7.94364H15.4376C15.8519 7.94364 16.2494 8.10824 16.5424 8.40124C16.8354 8.69424 17 9.09163 17 9.50601V11.4832C17 11.8976 16.8354 12.295 16.5424 12.588C16.2494 12.881 15.8519 13.0456 15.4376 13.0456H14.5284V13.2133C14.5284 13.8898 14.2596 14.5387 13.7812 15.0171C13.4214 15.3769 12.9651 15.6181 12.4732 15.7156C12.3876 15.9979 12.2334 16.2576 12.021 16.47C11.6817 16.8094 11.2214 17 10.7415 17H9.25851C8.77859 17 8.31832 16.8094 7.97895 16.47C7.63959 16.1307 7.44893 15.6704 7.44893 15.1905C7.44893 14.7106 7.63959 14.2503 7.97895 13.9109C8.31832 13.5716 8.77859 13.381 9.25851 13.381H10.7415C11.2214 13.381 11.6817 13.5716 12.021 13.9109C12.202 14.0919 12.3406 14.3072 12.4307 14.5415C12.6318 14.4728 12.8166 14.3587 12.9698 14.2056C13.233 13.9424 13.3808 13.5855 13.3808 13.2133V7.40478C13.3737 6.97061 13.2813 6.54206 13.1088 6.14354C12.9357 5.74374 12.6855 5.38202 12.3723 5.07909C12.0592 4.77617 11.6894 4.53801 11.2841 4.37824C10.8788 4.21848 10.4459 4.14026 10.0103 4.14807C10.0034 4.1482 9.99657 4.1482 9.98971 4.14807ZM14.5284 11.898H15.4376C15.5476 11.898 15.6531 11.8543 15.731 11.7765C15.8088 11.6987 15.8525 11.5932 15.8525 11.4832V9.50601C15.8525 9.396 15.8088 9.29049 15.731 9.21269C15.6531 9.13489 15.5476 9.09118 15.4376 9.09118H14.5284V11.898ZM5.47163 9.09118H4.56242C4.45238 9.09118 4.34685 9.13489 4.26905 9.21269C4.19124 9.29049 4.14754 9.396 4.14754 9.50601V11.4832C4.14754 11.5932 4.19124 11.6987 4.26905 11.7765C4.34685 11.8543 4.45238 11.898 4.56242 11.898H5.47163V9.09118ZM9.25851 14.5285C9.08292 14.5285 8.91452 14.5982 8.79037 14.7224C8.66621 14.8465 8.59647 15.0149 8.59647 15.1905C8.59647 15.366 8.66621 15.5344 8.79037 15.6586C8.91452 15.7827 9.08292 15.8525 9.25851 15.8525H10.7415C10.9171 15.8525 11.0855 15.7827 11.2096 15.6586C11.3338 15.5344 11.4035 15.366 11.4035 15.1905C11.4035 15.0149 11.3338 14.8465 11.2096 14.7224C11.0855 14.5982 10.9171 14.5285 10.7415 14.5285H9.25851Z" fill="black"/>
</svg>
