<svg width="20" height="20" viewBox="0 0 20 20" fill="none" xmlns="http://www.w3.org/2000/svg">
<path fill-rule="evenodd" clip-rule="evenodd" d="M8.35877 12.2564C5.9797 12.2564 4.05108 14.185 4.05108 16.5641V17.3846C4.05108 17.7245 3.77556 18 3.4357 18C3.09583 18 2.82031 17.7245 2.82031 17.3846V16.5641C2.82031 13.5053 5.29996 11.0256 8.35877 11.0256H11.6408C14.6996 11.0256 17.1793 13.5053 17.1793 16.5641V17.3846C17.1793 17.7245 16.9038 18 16.5639 18C16.224 18 15.9485 17.7245 15.9485 17.3846V16.5641C15.9485 14.185 14.0199 12.2564 11.6408 12.2564H8.35877Z" fill="black"/>
<path fill-rule="evenodd" clip-rule="evenodd" d="M9.99997 3.23077C8.52721 3.23077 7.33331 4.42468 7.33331 5.89744C7.33331 7.3702 8.52721 8.5641 9.99997 8.5641C11.4727 8.5641 12.6666 7.37019 12.6666 5.89744C12.6666 4.42468 11.4727 3.23077 9.99997 3.23077ZM6.10254 5.89744C6.10254 3.74494 7.84748 2 9.99997 2C12.1524 2 13.8974 3.74494 13.8974 5.89744C13.8974 8.04994 12.1524 9.79487 9.99997 9.79487C7.84748 9.79487 6.10254 8.04993 6.10254 5.89744Z" fill="black"/>
</svg>
