<svg width="20" height="20" viewBox="0 0 20 20" fill="none" xmlns="http://www.w3.org/2000/svg">
<path d="M7.34962 4.26329L7.96504 4.05689C8.54103 3.86368 9.15702 4.17629 9.40387 4.7871L9.89529 6.00391C10.1096 6.53372 9.99072 7.15712 9.60159 7.54473L8.51989 8.62354C8.58656 9.26915 8.79303 9.90456 9.13931 10.5298C9.4686 11.1345 9.90983 11.6639 10.437 12.0868L11.7375 11.6308C12.2301 11.4586 12.7667 11.6572 13.069 12.1234L13.7729 13.2094C14.1249 13.7518 14.0615 14.4994 13.6255 14.959L13.1581 15.4516C12.693 15.9418 12.029 16.12 11.4141 15.9184C9.96348 15.4432 8.6296 14.0326 7.41248 11.6866C6.19384 9.33655 5.76375 7.34293 6.12222 5.70571C6.27307 5.0169 6.74049 4.46789 7.35077 4.26329" fill="black"/>
</svg>
