<svg width="20" height="20" viewBox="0 0 20 20" fill="none" xmlns="http://www.w3.org/2000/svg">
<path fill-rule="evenodd" clip-rule="evenodd" d="M16.0002 17.3334C16.3538 17.3334 16.693 17.1929 16.943 16.9428C17.193 16.6928 17.3335 16.3536 17.3335 16V4.00002C17.3335 3.6464 17.193 3.30726 16.943 3.05721C16.693 2.80716 16.3538 2.66669 16.0002 2.66669H4.00019C3.64657 2.66669 3.30743 2.80716 3.05738 3.05721C2.80733 3.30726 2.66686 3.6464 2.66686 4.00002V8.66669C2.66686 8.8435 2.7371 9.01307 2.86212 9.13809C2.98714 9.26312 3.15671 9.33335 3.33352 9.33335C3.51034 9.33335 3.6799 9.26312 3.80493 9.13809C3.92995 9.01307 4.00019 8.8435 4.00019 8.66669V4.00002H16.0002V16H11.3335C11.1567 16 10.9871 16.0703 10.8621 16.1953C10.7371 16.3203 10.6669 16.4899 10.6669 16.6667C10.6669 16.8435 10.7371 17.0131 10.8621 17.1381C10.9871 17.2631 11.1567 17.3334 11.3335 17.3334H16.0002ZM12.0002 8.66669V12.6667C12.0002 12.8435 11.93 13.0131 11.8049 13.1381C11.6799 13.2631 11.5103 13.3334 11.3335 13.3334C11.1567 13.3334 10.9871 13.2631 10.8621 13.1381C10.7371 13.0131 10.6669 12.8435 10.6669 12.6667V10.276L3.80552 17.1387C3.74354 17.2007 3.66995 17.2498 3.58897 17.2834C3.50798 17.3169 3.42118 17.3342 3.33352 17.3342C3.24587 17.3342 3.15907 17.3169 3.07808 17.2834C2.99709 17.2498 2.92351 17.2007 2.86152 17.1387C2.79954 17.0767 2.75037 17.0031 2.71683 16.9221C2.68328 16.8411 2.66602 16.7543 2.66602 16.6667C2.66602 16.579 2.68328 16.4922 2.71683 16.4112C2.75037 16.3303 2.79954 16.2567 2.86152 16.1947L9.72419 9.33335H7.33352C7.15671 9.33335 6.98714 9.26312 6.86212 9.13809C6.7371 9.01307 6.66686 8.8435 6.66686 8.66669C6.66686 8.48988 6.7371 8.32031 6.86212 8.19528C6.98714 8.07026 7.15671 8.00002 7.33352 8.00002H11.3335C11.5096 8.00002 11.6786 8.06971 11.8035 8.19387C11.9284 8.31803 11.9991 8.48657 12.0002 8.66269" fill="black"/>
</svg>
