<svg width="20" height="20" viewBox="0 0 20 20" fill="none" xmlns="http://www.w3.org/2000/svg">
<path d="M8.82981 3C5.617 3 3 5.617 3 8.82981C3 12.0426 5.617 14.6596 8.82981 14.6596C10.2269 14.6596 11.51 14.1635 12.5156 13.3399L15.9964 16.8208C16.0501 16.8767 16.1144 16.9214 16.1856 16.9522C16.2568 16.9829 16.3335 16.9992 16.411 17C16.4886 17.0008 16.5655 16.9861 16.6373 16.9567C16.7091 16.9274 16.7744 16.8841 16.8292 16.8292C16.8841 16.7744 16.9274 16.7091 16.9567 16.6373C16.9861 16.5655 17.0008 16.4886 17 16.411C16.9992 16.3335 16.9829 16.2568 16.9522 16.1856C16.9214 16.1144 16.8767 16.0501 16.8208 15.9964L13.3399 12.5156C14.1635 11.51 14.6596 10.2269 14.6596 8.82981C14.6596 5.617 12.0426 3 8.82981 3ZM8.82981 4.16596C11.4125 4.16596 13.4937 6.24713 13.4937 8.82981C13.4937 11.4125 11.4125 13.4937 8.82981 13.4937C6.24713 13.4937 4.16596 11.4125 4.16596 8.82981C4.16596 6.24713 6.24713 4.16596 8.82981 4.16596Z" fill="black"/>
</svg>
